<?xml version="1.0" encoding="utf-8"?>
<!-- Generator: Adobe Illustrator 16.0.0, SVG Export Plug-In . SVG Version: 6.00 Build 0)  -->
<!DOCTYPE svg PUBLIC "-//W3C//DTD SVG 1.1//EN" "http://www.w3.org/Graphics/SVG/1.1/DTD/svg11.dtd">
<svg version="1.1" id="Layer_1" xmlns="http://www.w3.org/2000/svg" xmlns:xlink="http://www.w3.org/1999/xlink" x="0px" y="0px"
	 width="210px" height="20px" viewBox="20 0 210 20" enable-background="new 20 0 210 20" xml:space="preserve">
<g>
	<path fill="#FFFFFF" d="M30.343,15.116c-0.585,0.294-1.756,0.584-3.254,0.584C23.614,15.7,21,13.506,21,9.464
		c0-3.859,2.614-6.473,6.437-6.473c1.536,0,2.504,0.329,2.925,0.548l-0.384,1.298c-0.604-0.292-1.463-0.511-2.487-0.511
		c-2.889,0-4.809,1.847-4.809,5.082c0,3.018,1.737,4.956,4.734,4.956c0.97,0,1.956-0.201,2.598-0.512L30.343,15.116z"/>
	<path fill="#FFFFFF" d="M31.822,2.535h1.609v5.522h0.036c0.257-0.456,0.658-0.86,1.153-1.134c0.474-0.275,1.041-0.458,1.646-0.458
		c1.188,0,3.09,0.731,3.09,3.786v5.268h-1.609v-5.084c0-1.426-0.531-2.633-2.047-2.633c-1.042,0-1.866,0.731-2.158,1.608
		c-0.092,0.22-0.11,0.457-0.11,0.768v5.34h-1.609L31.822,2.535L31.822,2.535z"/>
	<path fill="#FFFFFF" d="M43.303,4.18c0.018,0.549-0.384,0.987-1.025,0.987c-0.566,0-0.969-0.438-0.969-0.987
		c0-0.566,0.421-1.005,1.006-1.005C42.919,3.175,43.303,3.614,43.303,4.18z M41.513,15.519V6.667h1.608v8.851H41.513L41.513,15.519z
		"/>
	<path fill="#FFFFFF" d="M45.332,2.535h1.609v12.981h-1.609V2.535z"/>
	<path fill="#FFFFFF" d="M56.833,2.535v10.696c0,0.787,0.018,1.683,0.073,2.287H55.46l-0.073-1.537h-0.037
		c-0.493,0.989-1.572,1.737-3.017,1.737c-2.139,0-3.787-1.809-3.787-4.498c-0.017-2.945,1.811-4.753,3.968-4.753
		c1.353,0,2.268,0.641,2.669,1.353h0.036V2.536L56.833,2.535L56.833,2.535z M55.225,10.27c0-0.202-0.018-0.475-0.074-0.677
		c-0.237-1.024-1.114-1.864-2.322-1.864c-1.664,0-2.651,1.464-2.651,3.42c0,1.791,0.878,3.271,2.614,3.271
		c1.08,0,2.066-0.714,2.358-1.92c0.055-0.22,0.074-0.437,0.074-0.696L55.225,10.27L55.225,10.27z"/>
	<path fill="#FFFFFF" d="M59.045,9.428c0-1.042-0.018-1.938-0.072-2.761h1.407l0.055,1.737h0.072
		c0.402-1.188,1.372-1.938,2.451-1.938c0.183,0,0.312,0.018,0.458,0.055v1.518c-0.166-0.038-0.329-0.055-0.55-0.055
		c-1.134,0-1.938,0.859-2.157,2.066c-0.037,0.219-0.075,0.475-0.075,0.749v4.72h-1.59L59.045,9.428L59.045,9.428z"/>
	<path fill="#FFFFFF" d="M65.277,11.385c0.037,2.177,1.427,3.073,3.036,3.073c1.153,0,1.847-0.201,2.45-0.458l0.275,1.151
		c-0.567,0.259-1.535,0.549-2.944,0.549c-2.725,0-4.351-1.794-4.351-4.462c0-2.669,1.572-4.771,4.151-4.771
		c2.889,0,3.656,2.542,3.656,4.166c0,0.332-0.036,0.586-0.054,0.752H65.277L65.277,11.385z M69.995,10.233
		c0.018-1.024-0.42-2.615-2.229-2.615c-1.626,0-2.341,1.499-2.468,2.615H69.995z"/>
	<path fill="#FFFFFF" d="M73.085,9.062c0-0.915-0.018-1.664-0.073-2.395h1.426l0.09,1.463h0.037
		c0.438-0.841,1.463-1.664,2.925-1.664c1.226,0,3.126,0.731,3.126,3.767v5.285h-1.608v-5.102c0-1.427-0.53-2.617-2.047-2.617
		c-1.061,0-1.884,0.75-2.158,1.645c-0.073,0.203-0.11,0.477-0.11,0.75v5.323h-1.608L73.085,9.062L73.085,9.062z"/>
	<path fill="#FFFFFF" d="M84.202,2.994c-0.42,1.536-1.206,3.493-1.719,4.333l-1.024,0.128c0.401-1.079,0.877-2.981,1.078-4.296
		L84.202,2.994z"/>
	<path fill="#FFFFFF" d="M83.963,13.872c0.475,0.311,1.317,0.641,2.121,0.641c1.17,0,1.719-0.584,1.719-1.316
		c0-0.768-0.457-1.187-1.646-1.626c-1.589-0.567-2.34-1.445-2.34-2.505c0-1.427,1.152-2.597,3.054-2.597
		c0.896,0,1.683,0.256,2.176,0.549l-0.402,1.17c-0.347-0.219-0.988-0.512-1.81-0.512c-0.95,0-1.481,0.548-1.481,1.208
		c0,0.731,0.53,1.061,1.682,1.5c1.536,0.583,2.323,1.352,2.323,2.669c0,1.555-1.207,2.648-3.31,2.648
		c-0.969,0-1.864-0.236-2.487-0.601L83.963,13.872z"/>
	<path fill="#FFFFFF" d="M95.792,15.519L92.667,3.193h1.684l1.461,6.235c0.368,1.537,0.695,3.074,0.916,4.26h0.036
		c0.199-1.224,0.584-2.687,1.004-4.278l1.647-6.217h1.662l1.5,6.252c0.348,1.462,0.676,2.926,0.859,4.225h0.037
		c0.256-1.353,0.604-2.726,0.988-4.261l1.627-6.218h1.625l-3.492,12.326h-1.662l-1.555-6.419c-0.384-1.572-0.641-2.78-0.804-4.022
		h-0.036c-0.219,1.225-0.493,2.431-0.951,4.022l-1.755,6.419H95.792L95.792,15.519z"/>
	<path fill="#FFFFFF" d="M116.142,11.019c0,3.272-2.266,4.699-4.406,4.699c-2.395,0-4.242-1.756-4.242-4.553
		c0-2.962,1.938-4.699,4.388-4.699C114.423,6.467,116.142,8.313,116.142,11.019z M109.121,11.111c0,1.938,1.116,3.401,2.688,3.401
		c1.536,0,2.688-1.447,2.688-3.438c0-1.5-0.749-3.401-2.651-3.401C109.945,7.673,109.121,9.428,109.121,11.111z"/>
	<path fill="#FFFFFF" d="M117.714,9.428c0-1.042-0.018-1.938-0.074-2.761h1.409l0.054,1.737h0.073
		c0.401-1.188,1.372-1.938,2.45-1.938c0.183,0,0.311,0.018,0.458,0.055v1.518c-0.165-0.038-0.331-0.055-0.549-0.055
		c-1.135,0-1.938,0.859-2.158,2.066c-0.036,0.219-0.074,0.475-0.074,0.749v4.72h-1.59L117.714,9.428L117.714,9.428z"/>
	<path fill="#FFFFFF" d="M124.898,10.726h0.038c0.22-0.309,0.528-0.693,0.787-1.004l2.598-3.054h1.938l-3.42,3.638l3.895,5.213
		h-1.957l-3.055-4.245l-0.82,0.915v3.33h-1.59V2.535h1.59v8.19H124.898z"/>
	<path fill="#FFFFFF" d="M131.59,15.519V7.893h-1.242V6.667h1.242V6.247c0-1.243,0.274-2.377,1.025-3.09
		c0.602-0.586,1.408-0.823,2.156-0.823c0.568,0,1.06,0.128,1.373,0.256l-0.221,1.244c-0.237-0.11-0.566-0.202-1.025-0.202
		c-1.371,0-1.717,1.207-1.717,2.56v0.475h2.139v1.226h-2.139v7.626H131.59L131.59,15.519z"/>
	<path fill="#FFFFFF" d="M144.077,11.019c0,3.272-2.267,4.699-4.406,4.699c-2.396,0-4.243-1.756-4.243-4.553
		c0-2.962,1.938-4.699,4.389-4.699C142.359,6.467,144.077,8.313,144.077,11.019z M137.056,11.111c0,1.938,1.117,3.401,2.688,3.401
		c1.536,0,2.688-1.447,2.688-3.438c0-1.5-0.75-3.401-2.65-3.401C137.878,7.674,137.056,9.428,137.056,11.111z"/>
	<path fill="#FFFFFF" d="M145.648,9.428c0-1.042-0.017-1.938-0.071-2.761h1.406l0.055,1.737h0.073
		c0.402-1.188,1.371-1.938,2.451-1.938c0.182,0,0.312,0.018,0.457,0.055v1.518c-0.164-0.038-0.33-0.055-0.547-0.055
		c-1.135,0-1.938,0.859-2.158,2.066c-0.037,0.219-0.072,0.475-0.072,0.749v4.72h-1.59v-6.09H145.648z"/>
	<path fill="#FFFFFF" d="M157.295,15.189c-0.419,0.218-1.351,0.509-2.54,0.509c-2.671,0-4.408-1.809-4.408-4.517
		c0-2.724,1.866-4.697,4.754-4.697c0.952,0,1.794,0.238,2.231,0.458l-0.367,1.243c-0.385-0.22-0.987-0.421-1.866-0.421
		c-2.03,0-3.126,1.5-3.126,3.347c0,2.048,1.316,3.309,3.073,3.309c0.914,0,1.518-0.237,1.974-0.438L157.295,15.189z"/>
	<path fill="#FFFFFF" d="M159.507,11.385c0.037,2.177,1.427,3.073,3.036,3.073c1.152,0,1.846-0.201,2.45-0.458l0.274,1.151
		c-0.566,0.259-1.535,0.549-2.943,0.549c-2.724,0-4.353-1.794-4.353-4.462c0-2.669,1.573-4.771,4.151-4.771
		c2.888,0,3.656,2.542,3.656,4.166c0,0.332-0.036,0.586-0.054,0.752H159.507L159.507,11.385z M164.225,10.233
		c0.019-1.024-0.421-2.615-2.229-2.615c-1.626,0-2.342,1.499-2.47,2.615H164.225z"/>
	<path fill="#FFFFFF" d="M181.028,10.801c-0.056-1.482-0.112-3.274-0.112-5.066h-0.054c-0.384,1.572-0.896,3.328-1.373,4.773
		l-1.497,4.807h-2.177l-1.317-4.771c-0.4-1.444-0.821-3.199-1.113-4.808h-0.037c-0.074,1.664-0.128,3.564-0.221,5.101l-0.219,4.681
		h-2.579l0.786-12.325h3.713l1.205,4.115c0.386,1.426,0.771,2.961,1.043,4.406h0.054c0.349-1.427,0.77-3.054,1.17-4.425l1.317-4.096
		h3.638l0.678,12.325h-2.724L181.028,10.801z"/>
	<path fill="#FFFFFF" d="M190.662,15.519l-0.165-0.896h-0.053c-0.586,0.713-1.501,1.098-2.562,1.098
		c-1.81,0-2.887-1.316-2.887-2.744c0-2.322,2.083-3.436,5.248-3.417V9.428c0-0.475-0.259-1.153-1.626-1.153
		c-0.915,0-1.882,0.312-2.468,0.678l-0.513-1.792c0.623-0.348,1.847-0.786,3.475-0.786c2.98,0,3.932,1.756,3.932,3.858v3.108
		c0,0.858,0.036,1.683,0.128,2.177H190.662z M190.332,11.294c-1.464-0.019-2.598,0.329-2.598,1.409c0,0.713,0.475,1.06,1.098,1.06
		c0.694,0,1.263-0.457,1.446-1.023c0.035-0.147,0.054-0.312,0.054-0.476V11.294z"/>
	<path fill="#FFFFFF" d="M197.734,4.017v2.56h1.994v2.049h-1.994v3.237c0,1.077,0.257,1.572,1.098,1.572
		c0.348,0,0.622-0.038,0.824-0.075l0.017,2.104c-0.368,0.147-1.026,0.237-1.812,0.237c-0.893,0-1.644-0.309-2.083-0.766
		c-0.51-0.532-0.767-1.391-0.767-2.652V8.625h-1.188V6.577h1.188V4.638L197.734,4.017z"/>
	<path fill="#FFFFFF" d="M203.988,4.017v2.56h1.994v2.049h-1.994v3.237c0,1.077,0.256,1.572,1.096,1.572
		c0.348,0,0.623-0.038,0.825-0.075l0.017,2.104c-0.366,0.147-1.024,0.237-1.81,0.237c-0.895,0-1.646-0.309-2.084-0.766
		c-0.509-0.532-0.768-1.391-0.768-2.652V8.625h-1.188V6.577h1.188V4.638L203.988,4.017z"/>
	<path fill="#FFFFFF" d="M209.18,11.934c0.091,1.152,1.227,1.699,2.524,1.699c0.951,0,1.719-0.127,2.468-0.366l0.365,1.885
		c-0.915,0.367-2.028,0.547-3.233,0.547c-3.036,0-4.771-1.756-4.771-4.554c0-2.268,1.407-4.771,4.515-4.771
		c2.889,0,3.985,2.25,3.985,4.462c0,0.474-0.054,0.895-0.09,1.097L209.18,11.934L209.18,11.934z M212.453,10.032
		c0-0.676-0.291-1.811-1.572-1.811c-1.17,0-1.646,1.062-1.719,1.811H212.453z"/>
	<path fill="#FFFFFF" d="M216.237,9.521c0-1.317-0.036-2.175-0.073-2.944h2.396l0.088,1.645h0.077
		c0.457-1.297,1.554-1.846,2.414-1.846c0.256,0,0.383,0,0.581,0.037v2.613c-0.198-0.036-0.438-0.073-0.749-0.073
		c-1.024,0-1.721,0.549-1.902,1.408c-0.036,0.184-0.052,0.402-0.052,0.622v4.535h-2.782V9.521H216.237z"/>
	<path fill="#FFFFFF" d="M222.708,13.086c0.513,0.309,1.574,0.676,2.396,0.676c0.842,0,1.188-0.292,1.188-0.751
		c0-0.457-0.273-0.676-1.314-1.023c-1.847-0.622-2.562-1.626-2.542-2.688c0-1.663,1.425-2.926,3.639-2.926
		c1.042,0,1.974,0.237,2.524,0.512l-0.495,1.919c-0.401-0.219-1.169-0.512-1.938-0.512c-0.676,0-1.059,0.275-1.059,0.732
		c0,0.42,0.347,0.64,1.444,1.024c1.7,0.585,2.413,1.444,2.431,2.763c0,1.663-1.314,2.888-3.875,2.888
		c-1.171,0-2.214-0.259-2.888-0.621L222.708,13.086z"/>
</g>
</svg>
