<?xml version="1.0" encoding="utf-8"?>
<!-- Generator: Adobe Illustrator 15.1.0, SVG Export Plug-In . SVG Version: 6.00 Build 0)  -->
<!DOCTYPE svg PUBLIC "-//W3C//DTD SVG 1.1//EN" "http://www.w3.org/Graphics/SVG/1.1/DTD/svg11.dtd">
<svg version="1.1" id="Layer_1" xmlns="http://www.w3.org/2000/svg" xmlns:xlink="http://www.w3.org/1999/xlink" x="0px" y="0px"
	 width="250px" height="20px" viewBox="0 0 250 20" enable-background="new 0 0 250 20" xml:space="preserve">
<g>
	<path fill="#FFFFFF" d="M12.103,15.247c-0.698,0.35-2.094,0.697-3.882,0.697c-4.144,0-7.262-2.617-7.262-7.438
		c0-4.603,3.118-7.721,7.677-7.721c1.832,0,2.988,0.393,3.49,0.654l-0.458,1.549C10.947,2.64,9.923,2.378,8.701,2.378
		c-3.446,0-5.736,2.203-5.736,6.062c0,3.6,2.072,5.912,5.647,5.912c1.156,0,2.333-0.24,3.099-0.611L12.103,15.247z"/>
	<path fill="#FFFFFF" d="M13.868,0.24h1.919v6.587h0.043c0.306-0.544,0.785-1.025,1.375-1.352c0.566-0.328,1.242-0.546,1.963-0.546
		c1.417,0,3.686,0.873,3.686,4.516v6.283h-1.919V9.664c0-1.702-0.633-3.141-2.442-3.141c-1.243,0-2.226,0.873-2.574,1.919
		c-0.109,0.262-0.131,0.545-0.131,0.916v6.369h-1.919V0.24L13.868,0.24z"/>
	<path fill="#FFFFFF" d="M27.562,2.203c0.021,0.655-0.458,1.178-1.222,1.178c-0.676,0-1.156-0.523-1.156-1.178
		c0-0.676,0.502-1.199,1.2-1.199C27.104,1.004,27.562,1.527,27.562,2.203z M25.427,15.726V5.17h1.919v10.556H25.427L25.427,15.726z"
		/>
	<path fill="#FFFFFF" d="M29.983,0.24h1.919v15.485h-1.919V0.24z"/>
	<path fill="#FFFFFF" d="M43.702,0.24v12.759c0,0.938,0.021,2.007,0.087,2.727h-1.725l-0.087-1.832h-0.044
		c-0.589,1.18-1.875,2.072-3.599,2.072c-2.551,0-4.516-2.158-4.516-5.365c-0.021-3.513,2.16-5.67,4.733-5.67
		c1.614,0,2.705,0.764,3.184,1.614h0.043V0.241L43.702,0.24L43.702,0.24z M41.783,9.467c0-0.241-0.021-0.567-0.088-0.808
		c-0.283-1.222-1.329-2.224-2.77-2.224c-1.985,0-3.163,1.746-3.163,4.078c0,2.137,1.048,3.904,3.119,3.904
		c1.287,0,2.464-0.852,2.812-2.29c0.066-0.262,0.088-0.522,0.088-0.83L41.783,9.467L41.783,9.467z"/>
	<path fill="#FFFFFF" d="M46.34,8.463c0-1.243-0.021-2.312-0.087-3.294h1.679l0.065,2.072h0.087
		c0.479-1.417,1.636-2.312,2.923-2.312c0.218,0,0.371,0.021,0.545,0.065v1.811C51.355,6.761,51.16,6.74,50.897,6.74
		c-1.353,0-2.312,1.025-2.573,2.464c-0.044,0.262-0.089,0.566-0.089,0.893v5.629h-1.896L46.34,8.463L46.34,8.463z"/>
	<path fill="#FFFFFF" d="M53.774,10.796c0.044,2.596,1.702,3.666,3.621,3.666c1.375,0,2.203-0.24,2.923-0.547l0.327,1.375
		c-0.676,0.307-1.831,0.654-3.511,0.654c-3.25,0-5.19-2.139-5.19-5.322c0-3.184,1.875-5.692,4.951-5.692
		c3.446,0,4.362,3.032,4.362,4.971c0,0.395-0.043,0.699-0.065,0.896L53.774,10.796L53.774,10.796z M59.401,9.423
		c0.021-1.222-0.502-3.119-2.659-3.119c-1.94,0-2.792,1.788-2.944,3.119H59.401z"/>
	<path fill="#FFFFFF" d="M63.087,8.027c0-1.091-0.021-1.985-0.087-2.857h1.701l0.108,1.745h0.043
		c0.523-1.003,1.745-1.985,3.49-1.985c1.461,0,3.729,0.873,3.729,4.493v6.303h-1.919V9.642c0-1.702-0.633-3.121-2.442-3.121
		c-1.265,0-2.247,0.894-2.574,1.962c-0.087,0.242-0.131,0.568-0.131,0.895v6.348h-1.919L63.087,8.027L63.087,8.027z"/>
	<path fill="#FFFFFF" d="M76.348,0.787c-0.502,1.832-1.439,4.166-2.051,5.168l-1.222,0.153c0.479-1.287,1.047-3.556,1.286-5.125
		L76.348,0.787z"/>
	<path fill="#FFFFFF" d="M76.062,13.763c0.567,0.371,1.571,0.764,2.53,0.764c1.396,0,2.05-0.696,2.05-1.569
		c0-0.916-0.545-1.417-1.963-1.94c-1.896-0.677-2.792-1.724-2.792-2.988c0-1.702,1.375-3.098,3.643-3.098
		c1.069,0,2.007,0.306,2.596,0.655l-0.48,1.396c-0.414-0.262-1.178-0.611-2.159-0.611c-1.134,0-1.767,0.654-1.767,1.44
		c0,0.872,0.632,1.265,2.007,1.79c1.832,0.697,2.771,1.612,2.771,3.184c0,1.854-1.44,3.16-3.948,3.16
		c-1.156,0-2.224-0.283-2.967-0.717L76.062,13.763z"/>
	<path fill="#FFFFFF" d="M90.173,15.726l-3.729-14.7h2.008l1.744,7.437c0.438,1.833,0.829,3.666,1.092,5.081h0.043
		c0.238-1.459,0.697-3.204,1.198-5.102l1.964-7.416h1.983l1.789,7.458c0.415,1.744,0.807,3.49,1.025,5.039h0.044
		c0.305-1.613,0.72-3.25,1.178-5.082l1.941-7.416h1.939l-4.166,14.701h-1.983l-1.854-7.656c-0.458-1.875-0.764-3.315-0.959-4.798
		h-0.043c-0.261,1.461-0.588,2.9-1.134,4.798l-2.094,7.656h-1.986V15.726z"/>
	<path fill="#FFFFFF" d="M114.446,10.36c0,3.904-2.703,5.605-5.256,5.605c-2.856,0-5.06-2.094-5.06-5.431
		c0-3.533,2.312-5.605,5.234-5.605C112.396,4.93,114.446,7.133,114.446,10.36z M106.071,10.471c0,2.312,1.331,4.056,3.206,4.056
		c1.833,0,3.206-1.725,3.206-4.101c0-1.789-0.894-4.057-3.162-4.057C107.054,6.369,106.071,8.463,106.071,10.471z"/>
	<path fill="#FFFFFF" d="M116.321,8.463c0-1.243-0.021-2.312-0.088-3.294h1.68l0.064,2.072h0.088
		c0.479-1.417,1.636-2.312,2.922-2.312c0.218,0,0.371,0.021,0.546,0.065v1.811c-0.197-0.044-0.394-0.065-0.655-0.065
		c-1.354,0-2.312,1.025-2.574,2.464c-0.043,0.262-0.087,0.566-0.087,0.893v5.629h-1.897V8.463H116.321z"/>
	<path fill="#FFFFFF" d="M124.891,10.011h0.045c0.262-0.369,0.631-0.828,0.938-1.199l3.098-3.643h2.312l-4.08,4.34l4.646,6.217
		h-2.334l-3.644-5.062l-0.979,1.091v3.972h-1.896V0.24h1.896v9.771H124.891z"/>
	<path fill="#FFFFFF" d="M132.872,15.726V6.631h-1.481V5.17h1.481V4.668c0-1.483,0.327-2.836,1.224-3.686
		C134.812,0.283,135.775,0,136.668,0c0.678,0,1.264,0.153,1.637,0.306l-0.262,1.483c-0.284-0.131-0.677-0.24-1.223-0.24
		c-1.637,0-2.049,1.439-2.049,3.053v0.567h2.551v1.462h-2.551v9.095H132.872L132.872,15.726z"/>
	<path fill="#FFFFFF" d="M147.768,10.36c0,3.904-2.703,5.605-5.256,5.605c-2.857,0-5.062-2.094-5.062-5.431
		c0-3.533,2.312-5.605,5.235-5.605C145.719,4.93,147.768,7.133,147.768,10.36z M139.393,10.471c0,2.312,1.332,4.056,3.207,4.056
		c1.832,0,3.205-1.725,3.205-4.101c0-1.789-0.895-4.057-3.162-4.057C140.373,6.37,139.393,8.463,139.393,10.471z"/>
	<path fill="#FFFFFF" d="M149.643,8.463c0-1.243-0.021-2.312-0.086-3.294h1.678l0.065,2.072h0.087
		c0.48-1.417,1.635-2.312,2.924-2.312c0.217,0,0.371,0.021,0.545,0.065v1.811c-0.196-0.044-0.394-0.065-0.652-0.065
		c-1.354,0-2.312,1.025-2.575,2.464c-0.044,0.262-0.087,0.566-0.087,0.893v5.629h-1.896V8.463H149.643z"/>
	<path fill="#FFFFFF" d="M163.534,15.335c-0.5,0.26-1.611,0.607-3.03,0.607c-3.186,0-5.258-2.158-5.258-5.387
		c0-3.25,2.227-5.604,5.671-5.604c1.136,0,2.14,0.284,2.661,0.546l-0.438,1.483c-0.459-0.262-1.177-0.502-2.225-0.502
		c-2.423,0-3.73,1.789-3.73,3.993c0,2.442,1.571,3.946,3.666,3.946c1.09,0,1.81-0.283,2.354-0.523L163.534,15.335z"/>
	<path fill="#FFFFFF" d="M166.173,10.796c0.044,2.596,1.702,3.666,3.621,3.666c1.375,0,2.202-0.24,2.923-0.547l0.327,1.375
		c-0.675,0.307-1.831,0.654-3.51,0.654c-3.25,0-5.192-2.139-5.192-5.322c0-3.184,1.877-5.692,4.952-5.692
		c3.444,0,4.36,3.032,4.36,4.971c0,0.395-0.043,0.699-0.064,0.896L166.173,10.796L166.173,10.796z M171.8,9.423
		c0.022-1.222-0.502-3.119-2.659-3.119c-1.94,0-2.793,1.788-2.945,3.119H171.8z"/>
	<path fill="#FFFFFF" d="M191.844,10.099c-0.066-1.767-0.134-3.904-0.134-6.042h-0.063c-0.459,1.876-1.069,3.97-1.638,5.693
		l-1.786,5.735h-2.597l-1.571-5.692c-0.479-1.723-0.981-3.817-1.328-5.736h-0.045c-0.088,1.984-0.152,4.252-0.262,6.084
		l-0.262,5.584h-3.076l0.938-14.701h4.428l1.438,4.908c0.459,1.701,0.918,3.533,1.244,5.255h0.064
		c0.416-1.701,0.918-3.642,1.396-5.277l1.571-4.886h4.339l0.809,14.701h-3.25L191.844,10.099z"/>
	<path fill="#FFFFFF" d="M203.335,15.726l-0.196-1.067h-0.064c-0.698,0.851-1.79,1.309-3.055,1.309
		c-2.158,0-3.444-1.569-3.444-3.272c0-2.77,2.485-4.099,6.259-4.077V8.463c0-0.567-0.307-1.375-1.939-1.375
		c-1.092,0-2.246,0.371-2.944,0.808l-0.611-2.137c0.742-0.415,2.202-0.938,4.146-0.938c3.554,0,4.688,2.094,4.688,4.602v3.708
		c0,1.024,0.044,2.007,0.153,2.595H203.335z M202.941,10.688c-1.746-0.022-3.098,0.393-3.098,1.681c0,0.85,0.567,1.264,1.309,1.264
		c0.828,0,1.506-0.545,1.725-1.221c0.043-0.175,0.064-0.371,0.064-0.567V10.688z"/>
	<path fill="#FFFFFF" d="M211.771,2.008v3.053h2.379v2.444h-2.379v3.861c0,1.285,0.306,1.875,1.31,1.875
		c0.415,0,0.742-0.045,0.981-0.088l0.021,2.508c-0.438,0.176-1.223,0.283-2.16,0.283c-1.066,0-1.961-0.369-2.486-0.914
		c-0.608-0.633-0.914-1.658-0.914-3.163V7.505h-1.416V5.061h1.416V2.749L211.771,2.008z"/>
	<path fill="#FFFFFF" d="M219.23,2.008v3.053h2.379v2.444h-2.379v3.861c0,1.285,0.306,1.875,1.308,1.875
		c0.415,0,0.744-0.045,0.983-0.088l0.021,2.508c-0.437,0.176-1.222,0.283-2.159,0.283c-1.066,0-1.962-0.369-2.484-0.914
		c-0.609-0.633-0.916-1.658-0.916-3.163V7.505h-1.418V5.061h1.418V2.749L219.23,2.008z"/>
	<path fill="#FFFFFF" d="M225.423,11.451c0.109,1.374,1.464,2.028,3.011,2.028c1.135,0,2.051-0.152,2.944-0.438l0.437,2.248
		c-1.092,0.437-2.42,0.653-3.858,0.653c-3.621,0-5.692-2.094-5.692-5.432c0-2.705,1.68-5.691,5.387-5.691
		c3.445,0,4.754,2.683,4.754,5.322c0,0.566-0.064,1.068-0.108,1.309L225.423,11.451L225.423,11.451z M229.328,9.183
		c0-0.806-0.348-2.16-1.875-2.16c-1.396,0-1.963,1.266-2.051,2.16H229.328z"/>
	<path fill="#FFFFFF" d="M233.842,8.573c0-1.571-0.043-2.595-0.087-3.512h2.856l0.106,1.963h0.091
		c0.545-1.548,1.854-2.202,2.879-2.202c0.306,0,0.457,0,0.695,0.043v3.118c-0.238-0.043-0.523-0.087-0.893-0.087
		c-1.223,0-2.053,0.655-2.271,1.68c-0.043,0.218-0.062,0.479-0.062,0.741v5.41h-3.317V8.573H233.842z"/>
	<path fill="#FFFFFF" d="M241.561,12.825c0.611,0.369,1.877,0.807,2.857,0.807c1.004,0,1.417-0.348,1.417-0.895
		c0-0.545-0.327-0.807-1.569-1.221c-2.203-0.742-3.055-1.941-3.031-3.207c0-1.984,1.699-3.49,4.339-3.49
		c1.243,0,2.354,0.283,3.011,0.611l-0.59,2.29c-0.479-0.262-1.396-0.611-2.312-0.611c-0.806,0-1.264,0.328-1.264,0.873
		c0,0.502,0.414,0.764,1.723,1.222c2.029,0.698,2.879,1.723,2.9,3.295c0,1.983-1.568,3.444-4.623,3.444
		c-1.396,0-2.639-0.307-3.445-0.74L241.561,12.825z"/>
</g>
</svg>
